<svg width="323" height="40" viewBox="0 0 323 40" fill="none" xmlns="http://www.w3.org/2000/svg">
<g clip-path="url(#clip0_658_3789)">
<path d="M137.37 21.9173C136.435 21.9173 135.926 22.7198 135.926 23.5848C135.926 24.4499 136.317 25.0918 136.924 25.7886C138.098 25.0605 138.783 24.4303 138.783 23.4674C138.783 22.7276 138.368 21.9017 137.402 21.9017L137.37 21.9173ZM137.018 32.6581C137.447 32.6637 137.873 32.5839 138.271 32.4233C138.669 32.2627 139.03 32.0245 139.335 31.7226C138.49 30.8536 137.186 29.4015 135.852 27.9179C135.443 28.1526 135.101 28.4866 134.857 28.8891C134.613 29.2915 134.474 29.7492 134.454 30.2195C134.45 30.5503 134.514 30.8785 134.642 31.1836C134.77 31.4886 134.959 31.7641 135.198 31.9929C135.437 32.2216 135.721 32.3987 136.031 32.5132C136.341 32.6276 136.672 32.6769 137.002 32.6581H137.018ZM141.637 34.2825C141.285 33.942 140.975 33.5976 140.549 33.1396C139.453 34.0558 138.062 34.5414 136.634 34.5057C133.566 34.5057 132.031 32.6112 132.031 30.6305C132.031 28.783 133.119 27.4991 134.716 26.6458V26.5793C134.039 25.8232 133.647 24.8539 133.609 23.8393C133.609 22.1209 134.916 20.3164 137.492 20.3164C139.449 20.3164 140.944 21.5103 140.944 23.4009C140.944 24.8217 140.118 25.9843 138.075 26.9981V27.0725C139.042 28.1685 140.102 29.3936 140.87 30.2039C141.536 29.0848 141.964 27.8402 142.126 26.5479H144.4C144.032 28.6734 143.387 30.4192 142.236 31.703C143.019 32.5524 143.77 33.3901 144.616 34.2865L141.637 34.2825Z" fill="white"/>
<path d="M82.637 33.9556C81.3487 34.2898 80.026 34.4736 78.6953 34.5036C73.0783 34.5036 69.1641 31.6971 69.1641 25.8257C69.1641 19.8877 72.8004 16.5527 78.6953 16.5527C80.0322 16.5651 81.3568 16.8101 82.6096 17.2769L82.3513 20.2087C81.211 19.5632 79.9148 19.2449 78.6053 19.2888C75.0276 19.2888 72.7887 22.0288 72.7887 25.5791C72.7887 29.1293 74.9689 31.7714 78.6836 31.7714C80.0497 31.7714 81.6584 31.47 82.4726 31.0473L82.637 33.9556Z" fill="white"/>
<path d="M85.4053 24.9336C86.5412 24.0573 87.9284 23.5688 89.3627 23.5401C91.3198 23.5401 92.2475 24.2369 92.2475 26.2997H90.4274C89.03 26.2997 87.3899 26.425 86.1216 27.0434C84.8534 27.6619 83.9453 28.7892 83.9453 30.6994C83.9453 33.134 86.153 34.504 88.4232 34.504C89.2163 34.5096 89.9972 34.3087 90.689 33.9209C91.3808 33.5331 91.9597 32.9719 92.3688 32.2925H92.4315C92.4339 32.9329 92.4796 33.5724 92.5685 34.2066H95.5003C95.4376 33.2123 95.3789 32.3199 95.3476 31.3491C95.3163 30.3784 95.3006 29.4351 95.3006 28.1394V26.4993C95.3006 22.7221 93.6919 21.1055 89.7932 21.1055C88.2587 21.1261 86.7439 21.4549 85.3388 22.0723L85.4053 24.9336ZM87.0924 30.5037C87.0924 28.5465 89.304 28.2882 90.807 28.2882H92.2475C92.3106 29.2213 92.0629 30.149 91.5429 30.9264C91.2728 31.2921 90.918 31.5867 90.5089 31.7851C90.0998 31.9835 89.6488 32.0797 89.1944 32.0654C87.9966 32.0654 87.0767 31.5957 87.0767 30.4997" fill="white"/>
<path d="M97.5235 34.2082H100.764V32.6424H100.808C101.262 33.2446 101.856 33.7283 102.537 34.0526C103.218 34.377 103.968 34.5323 104.722 34.5056C108.636 34.5056 110.096 31.2764 110.096 27.7692C110.096 24.262 108.652 21.1149 104.722 21.1149C103.974 21.0908 103.231 21.2557 102.563 21.5943C101.896 21.933 101.324 22.4345 100.901 23.0525H100.839V15.5605H97.5078L97.5235 34.2082ZM100.886 27.7692C100.886 25.9804 101.731 23.6905 103.865 23.6905C105.998 23.6905 106.624 26.0391 106.624 27.7692C106.624 29.4993 106.014 31.9379 103.818 31.9379C101.622 31.9379 100.886 29.5893 100.886 27.7848" fill="white"/>
<path d="M115.097 15.5625H111.766V34.2062H115.097V15.5625Z" fill="white"/>
<path d="M127.667 30.762C126.392 31.5532 124.932 31.9984 123.432 32.0537C121.361 32.0537 119.909 30.8795 119.78 28.8205H128.618C128.618 24.3465 127.284 21.0898 122.524 21.0898C118.551 21.0898 116.586 24.1469 116.586 27.8498C116.586 32.0537 119.044 34.5041 123.279 34.5041C124.806 34.5524 126.318 34.2016 127.667 33.4864V30.762ZM120.117 26.5307C120.254 24.8201 121.205 23.5245 123.064 23.5245C124.923 23.5245 125.687 24.918 125.781 26.5307H120.117Z" fill="white"/>
<path d="M149.091 30.803C150.393 31.5229 151.855 31.9051 153.342 31.9146C155.417 31.9146 156.552 30.9595 156.552 29.5308C156.552 28.2117 155.66 27.4328 153.421 26.6303C150.504 25.6087 148.649 24.0587 148.649 21.5418C148.649 18.6765 151.056 16.5237 154.877 16.5237C156.336 16.4805 157.786 16.7766 159.112 17.3887L158.329 19.9604C157.237 19.4096 156.03 19.1253 154.806 19.1306C152.763 19.1306 151.89 20.207 151.89 21.2365C151.89 22.5751 152.92 23.1936 155.264 24.0978C158.333 25.2721 159.809 26.7791 159.809 29.2881C159.809 32.0986 157.66 34.5333 153.119 34.5333C151.244 34.5333 149.311 34.0127 148.344 33.4294L149.091 30.803Z" fill="white"/>
<path d="M163.382 21.6602L165.684 28.4123C165.931 29.1952 166.205 30.1542 166.389 30.8587H166.467C166.666 30.1463 166.909 29.1991 167.14 28.3849L169.136 21.6445H172.573L169.383 30.2559C167.633 34.9726 166.451 37.0629 164.944 38.3742C163.996 39.2218 162.825 39.7801 161.57 39.9829L160.85 37.2977C161.515 37.1201 162.143 36.8259 162.705 36.4288C163.45 35.9122 164.057 35.2198 164.471 34.4129C164.589 34.2493 164.658 34.055 164.67 33.8532C164.66 33.6371 164.603 33.4259 164.502 33.2347L159.805 21.6484L163.382 21.6602Z" fill="white"/>
<path d="M173.146 31.3458C174.14 31.9109 175.256 32.2266 176.399 32.2656C177.808 32.2656 178.438 31.6785 178.438 30.8487C178.438 30.0188 177.917 29.5609 176.352 29.0129C173.85 28.1674 172.829 26.8248 172.829 25.3256C172.829 23.1062 174.684 21.38 177.647 21.38C178.821 21.3596 179.982 21.6171 181.037 22.1316L180.395 24.3705C179.572 23.9153 178.65 23.6668 177.71 23.6464C176.559 23.6464 175.913 24.2061 175.913 24.9812C175.913 25.7562 176.528 26.1555 178.141 26.7504C180.458 27.5607 181.53 28.7311 181.546 30.5942C181.546 32.8919 179.734 34.5516 176.36 34.5516C175.013 34.5739 173.681 34.2704 172.477 33.667L173.146 31.3458Z" fill="white"/>
<path d="M187.46 16.7891V21.6623H190.525V24.0383H187.46V29.6083C187.46 31.1505 187.852 31.9373 189.1 31.9373C189.525 31.9524 189.949 31.9063 190.361 31.8003L190.419 34.2272C189.659 34.4618 188.866 34.5715 188.071 34.5521C187.564 34.5754 187.058 34.4951 186.584 34.3161C186.109 34.1371 185.676 33.8631 185.311 33.5109C184.603 32.7906 184.297 31.632 184.297 29.988V24.0383H182.133V21.6623H184.297V16.7891H187.46Z" fill="white"/>
<path d="M218.737 21.3679C217.816 21.3432 216.91 21.6029 216.142 22.1116C215.52 22.5171 214.993 23.051 214.595 23.6773H214.533C214.259 22.9725 213.773 22.3701 213.142 21.9536C212.511 21.537 211.766 21.3269 211.01 21.3522C210.305 21.3278 209.605 21.4741 208.969 21.7788C208.333 22.0835 207.781 22.5374 207.358 23.1019V21.638H204.227V34.285H207.358V26.8479C207.351 26.4884 207.408 26.1305 207.526 25.791C207.678 25.287 207.982 24.8426 208.397 24.5193C208.812 24.196 209.318 24.0098 209.844 23.9866C211.315 23.9866 212.039 25.2274 212.039 27.0084V34.285H215.171V26.7109C215.172 26.3493 215.223 25.9896 215.324 25.6423C215.477 25.1652 215.775 24.7475 216.176 24.4467C216.577 24.146 217.061 23.977 217.563 23.9631C219.097 23.9631 219.833 25.1961 219.833 27.298V34.285H222.964V26.8479C222.964 22.8005 220.815 21.3679 218.713 21.3679" fill="white"/>
<path d="M201.98 30.762C200.703 31.5537 199.242 31.9989 197.741 32.0537C195.67 32.0537 194.218 30.8794 194.089 28.8205H202.931C202.931 24.3465 201.596 21.0898 196.836 21.0898C192.859 21.0898 190.898 24.1469 190.898 27.8498C190.898 32.0537 193.368 34.5041 197.588 34.5041C199.114 34.5571 200.628 34.2118 201.98 33.502V30.762ZM194.429 26.5307C194.566 24.8201 195.517 23.5245 197.373 23.5245C199.228 23.5245 199.999 24.918 200.089 26.5307H194.429Z" fill="white"/>
<path d="M44.534 21.9044C46.5303 21.9044 47.6341 22.1862 47.6654 23.517C47.6476 23.9038 47.548 24.2823 47.3733 24.6278C47.1985 24.9732 46.9526 25.2777 46.6516 25.5212C45.4382 26.4606 44.3657 26.5584 38.6391 26.5584H10.4171L15.8775 3.80475H6.45588C5.82568 3.80475 5.583 3.98481 5.39903 4.73635L0.224353 26.0652C-0.742474 30.3083 1.43778 34.1795 6.33454 34.1795H19.2712C22.5396 34.1795 26.9315 30.6097 28.7085 27.3022L28.9395 26.8481C28.9395 26.8481 28.9708 26.8011 28.9865 26.8716C28.7085 28.0459 27.7104 32.2615 27.5578 32.9465C27.3425 33.839 27.8044 34.1795 28.2349 34.1795H42.1698C53.9556 34.1795 58.5745 28.5586 59.0011 21.8143C59.2164 18.0292 56.8209 15.5789 50.0374 15.5789H44.8236C42.9683 15.5789 41.0659 14.9683 41.0659 13.4652C41.0659 11.9621 43.1366 10.6508 45.9314 10.6508H58.6058C58.6058 10.6508 59.7135 6.21203 59.9406 5.28826C60.2185 4.11398 59.8662 3.77735 59.0051 3.77735H43.3479C34.2355 3.77343 30.1451 9.86014 30.1451 14.205C30.1451 18.5498 33.6445 21.8965 42.6708 21.8965L44.534 21.9044Z" fill="white"/>
<path d="M50.6406 4.73037e-05H75.9034L62.9041 6.65432C62.9041 6.65432 63.4247 4.47015 63.5773 3.81647C63.73 3.16278 63.5343 2.60695 62.5674 2.40341L50.6406 -0.0195312" fill="#ED164B"/>
<path d="M233.246 34.2421L227.523 17.125H231.622L235.689 30.2652L239.756 17.125H243.396L237.697 34.2421H233.246Z" fill="white"/>
<path d="M248.597 19.482C248.214 19.8418 247.705 20.0359 247.18 20.0222C246.922 20.0289 246.666 19.9846 246.425 19.8919C246.185 19.7992 245.965 19.6599 245.778 19.482C245.42 19.1231 245.219 18.6368 245.219 18.1296C245.219 17.6225 245.42 17.1361 245.778 16.7773C245.965 16.6001 246.185 16.4615 246.426 16.3695C246.666 16.2775 246.922 16.2338 247.18 16.241C247.704 16.2279 248.212 16.4203 248.597 16.7773C248.776 16.9536 248.919 17.1641 249.017 17.3963C249.114 17.6285 249.164 17.8778 249.164 18.1296C249.164 18.3815 249.114 18.6308 249.017 18.863C248.919 19.0952 248.776 19.3056 248.597 19.482ZM245.465 34.2428V21.7171H248.91V34.2428H245.465Z" fill="white"/>
<path d="M257.877 34.503C255.943 34.503 254.377 33.9329 253.18 32.7925C251.982 31.6522 251.375 30.0995 251.359 28.1345V27.9427C251.359 25.996 251.97 24.4238 253.191 23.226C253.799 22.633 254.521 22.1686 255.312 21.8606C256.104 21.5526 256.949 21.4073 257.798 21.4333C259.407 21.3784 260.974 21.9527 262.167 23.0342C263.321 24.1067 263.905 25.692 263.905 27.8018V28.7569H254.859C254.848 29.6442 255.163 30.5047 255.743 31.1759C256.033 31.4683 256.381 31.6962 256.765 31.8446C257.149 31.993 257.56 32.0586 257.971 32.0371C259.471 32.0371 260.34 31.4551 260.578 30.2913H263.862C263.788 30.9156 263.583 31.5173 263.261 32.0569C262.938 32.5966 262.505 33.062 261.991 33.4227C260.957 34.1429 259.586 34.503 257.877 34.503ZM254.906 26.6275H260.507C260.397 24.7617 259.484 23.8275 257.767 23.8249C257.414 23.8128 257.061 23.8713 256.73 23.997C256.4 24.1227 256.097 24.313 255.841 24.5569C255.305 25.1221 254.976 25.8517 254.906 26.6275Z" fill="white"/>
<path d="M270.734 34.4809C269.411 34.4809 268.407 34.1456 267.72 33.475C267.031 32.8056 266.691 31.8231 266.691 30.5314V24.1864H265.086V21.7204H266.691V19.0195H270.135V21.7243H272.774V24.1903H270.135V30.2222C270.135 31.2125 270.601 31.7057 271.525 31.7057C271.976 31.7147 272.425 31.6335 272.844 31.4669V34.1482C272.164 34.3769 271.451 34.4894 270.734 34.4809Z" fill="white"/>
<path d="M275.18 34.2418V21.7161H278.648V23.7163C279 23.0294 279.544 22.4596 280.213 22.0762C280.98 21.6344 281.854 21.4148 282.738 21.4421C283.307 21.4149 283.875 21.5082 284.405 21.716C284.936 21.9237 285.416 22.2413 285.815 22.6477C286.574 23.4541 286.953 24.6636 286.95 26.2763V34.2496H283.478V26.7695C283.534 26.0932 283.348 25.419 282.953 24.8671C282.736 24.6482 282.472 24.48 282.182 24.3745C281.892 24.269 281.582 24.2287 281.274 24.2565C280.928 24.241 280.583 24.2958 280.258 24.4176C279.934 24.5394 279.638 24.7256 279.388 24.965C279.134 25.2392 278.94 25.5622 278.816 25.9142C278.692 26.2663 278.642 26.6399 278.667 27.0122V34.2418H275.18Z" fill="white"/>
<path d="M293.282 34.5041C292.2 34.5503 291.135 34.2212 290.268 33.5725C289.485 32.9462 289.094 32.0068 289.094 30.7699C289.094 28.0899 291.265 26.7499 295.607 26.7499H297.02V26.245C297.068 25.6324 296.908 25.0217 296.566 24.511C296.261 24.1196 295.732 23.9473 295 23.9473C293.736 23.9473 293.043 24.5384 292.867 25.7166H289.591C289.6 25.0884 289.756 24.471 290.047 23.9142C290.338 23.3574 290.755 22.8767 291.266 22.5108C292.438 21.7486 293.819 21.3722 295.216 21.4344C298.707 21.4344 300.454 22.9818 300.457 26.0767V34.2419H297.079V32.7192C296.218 33.9131 294.961 34.5041 293.282 34.5041ZM294.315 32.0851C295.017 32.1166 295.709 31.9051 296.273 31.4862C296.524 31.2977 296.727 31.0512 296.863 30.7678C296.999 30.4843 297.065 30.1722 297.055 29.8579V28.8049H295.713C294.9 28.7557 294.087 28.8895 293.333 29.1964C293.078 29.3185 292.866 29.5136 292.722 29.7568C292.578 30 292.51 30.2805 292.527 30.5625C292.491 31.5841 293.102 32.0851 294.315 32.0851Z" fill="white"/>
<path d="M303.406 34.2421V21.7164H306.882V23.6305C307.234 22.9833 307.753 22.4425 308.385 22.0647C309.086 21.6423 309.892 21.4265 310.71 21.4424C312.448 21.4424 313.615 22.1678 314.21 23.6187C314.66 22.919 315.286 22.3497 316.025 21.9678C316.764 21.5859 317.59 21.4047 318.421 21.4424C318.974 21.4201 319.526 21.5153 320.039 21.7218C320.553 21.9283 321.017 22.2413 321.4 22.6401C322.154 23.423 322.533 24.6195 322.535 26.2295V34.2499H319.091V26.6053C319.091 25.0396 318.433 24.2802 317.134 24.2802C316.814 24.27 316.496 24.3244 316.198 24.4401C315.9 24.5558 315.628 24.7304 315.4 24.9535C315.161 25.2053 314.977 25.5034 314.859 25.8292C314.74 26.1551 314.69 26.5019 314.711 26.848V34.246H311.266V26.6053C311.266 25.0553 310.614 24.2802 309.309 24.2802C308.99 24.27 308.671 24.3244 308.373 24.4401C308.075 24.5558 307.804 24.7304 307.575 24.9535C307.335 25.2044 307.15 25.5023 307.03 25.8283C306.911 26.1543 306.861 26.5015 306.882 26.848V34.246L303.406 34.2421Z" fill="white"/>
</g>
<defs>
<clipPath id="clip0_658_3789">
<rect width="322.536" height="40" fill="white"/>
</clipPath>
</defs>
</svg>
