<svg width="25" height="24" viewBox="0 0 25 24" fill="none" xmlns="http://www.w3.org/2000/svg">
<g id="Social Media Icon Square/Instagram">
<rect width="24" height="24" transform="translate(0.585938 0.00195312)" fill="#353535"/>
<rect id="Social Media Icon" x="0.585938" y="0.00195312" width="24" height="24" rx="5" fill="#FAFAFA"/>
<path id="Instagram" fill-rule="evenodd" clip-rule="evenodd" d="M6.58594 12.002C6.58594 9.60519 6.58594 8.40681 7.15707 7.54365C7.4121 7.15821 7.7422 6.82812 8.12764 6.57308C8.9908 6.00195 10.1892 6.00195 12.5859 6.00195C14.9827 6.00195 16.1811 6.00195 17.0442 6.57308C17.4297 6.82812 17.7598 7.15821 18.0148 7.54365C18.5859 8.40681 18.5859 9.60519 18.5859 12.002C18.5859 14.3987 18.5859 15.5971 18.0148 16.4603C17.7598 16.8457 17.4297 17.1758 17.0442 17.4308C16.1811 18.002 14.9827 18.002 12.5859 18.002C10.1892 18.002 8.9908 18.002 8.12764 17.4308C7.7422 17.1758 7.4121 16.8457 7.15707 16.4603C6.58594 15.5971 6.58594 14.3987 6.58594 12.002ZM15.6921 12.0021C15.6921 13.7177 14.3014 15.1084 12.5858 15.1084C10.8703 15.1084 9.47956 13.7177 9.47956 12.0021C9.47956 10.2866 10.8703 8.89583 12.5858 8.89583C14.3014 8.89583 15.6921 10.2866 15.6921 12.0021ZM12.5858 14.0574C13.721 14.0574 14.6412 13.1372 14.6412 12.0021C14.6412 10.867 13.721 9.94677 12.5858 9.94677C11.4507 9.94677 10.5305 10.867 10.5305 12.0021C10.5305 13.1372 11.4507 14.0574 12.5858 14.0574ZM15.8148 9.46965C16.2179 9.46965 16.5447 9.14287 16.5447 8.73977C16.5447 8.33667 16.2179 8.00989 15.8148 8.00989C15.4117 8.00989 15.0849 8.33667 15.0849 8.73977C15.0849 9.14287 15.4117 9.46965 15.8148 9.46965Z" fill="#8D8BA7"/>
</g>
</svg>
