<svg width="25" height="24" viewBox="0 0 25 24" fill="none" xmlns="http://www.w3.org/2000/svg">
<g id="Social Media Icon Square/LinkedIn">
<rect width="24" height="24" transform="translate(0.585938 0.00195312)" fill="#353535"/>
<g id="Group 73">
<rect id="Social Media Icon" x="0.585938" y="0.00195312" width="24" height="24" rx="5" fill="#FAFAFA"/>
<path id="LinkedIn" d="M6.58594 7.61565C6.58594 7.23084 6.72108 6.91338 6.99134 6.66327C7.26161 6.41314 7.61297 6.28809 8.0454 6.28809C8.47011 6.28809 8.81373 6.41121 9.07629 6.65749C9.34655 6.91146 9.48169 7.24238 9.48169 7.65028C9.48169 8.01969 9.35042 8.32752 9.08787 8.5738C8.8176 8.82777 8.46239 8.95475 8.02223 8.95475H8.01065C7.58593 8.95475 7.24231 8.82777 6.97976 8.5738C6.71721 8.31983 6.58594 8.00044 6.58594 7.61565ZM6.73652 17.7167V10.0053H9.30795V17.7167H6.73652ZM10.7327 17.7167H13.3041V13.4107C13.3041 13.1414 13.335 12.9336 13.3967 12.7874C13.5049 12.5257 13.6689 12.3044 13.889 12.1236C14.1091 11.9427 14.3852 11.8523 14.7172 11.8523C15.5821 11.8523 16.0145 12.4333 16.0145 13.5954V17.7167H18.5859V13.2953C18.5859 12.1563 18.3157 11.2924 17.7751 10.7037C17.2346 10.1149 16.5203 9.82055 15.6323 9.82055C14.6361 9.82055 13.8601 10.2477 13.3041 11.1019V11.125H13.2925L13.3041 11.1019V10.0053H10.7327C10.7481 10.2515 10.7558 11.0173 10.7558 12.3025C10.7558 13.5877 10.7481 15.3925 10.7327 17.7167Z" fill="#8D8BA7"/>
</g>
</g>
</svg>
