<svg width="25" height="24" viewBox="0 0 25 24" fill="none" xmlns="http://www.w3.org/2000/svg">
<g id="Social Media Icon Square/Twitter">
<rect width="24" height="24" transform="translate(0.585938 0.00195312)" fill="#353535"/>
<rect id="Social Media Icon" x="0.585938" y="0.00195312" width="24" height="24" rx="5" fill="#FAFAFA"/>
<path id="Twitter" d="M14.604 7.13595V7.13379H15.1666L15.3722 7.17485C15.5093 7.20151 15.6337 7.23644 15.7455 7.27966C15.8574 7.32289 15.9656 7.37332 16.0702 7.43094C16.1748 7.48857 16.2696 7.54729 16.3547 7.60707C16.4391 7.66615 16.5149 7.72882 16.582 7.79509C16.6483 7.86209 16.7519 7.87938 16.8925 7.84696C17.0332 7.81454 17.1847 7.76952 17.347 7.71189C17.5093 7.65426 17.6698 7.58943 17.8285 7.51739C17.9872 7.44535 18.0839 7.39961 18.1185 7.38016C18.1524 7.35999 18.1704 7.34919 18.1726 7.34774L18.1748 7.3445L18.1856 7.3391L18.1964 7.33369L18.2072 7.32829L18.218 7.32289L18.2202 7.31965L18.2234 7.31748L18.2267 7.31532L18.2289 7.31208L18.2397 7.30884L18.2505 7.30668L18.2483 7.32289L18.2451 7.3391L18.2397 7.3553L18.2343 7.37151L18.2289 7.38232L18.2234 7.39312L18.218 7.40933C18.2144 7.42014 18.2108 7.43454 18.2072 7.45255C18.2036 7.47057 18.1693 7.5426 18.1044 7.66867C18.0395 7.79474 17.9583 7.9226 17.861 8.05227C17.7636 8.18193 17.6763 8.2799 17.5991 8.34618C17.5212 8.41317 17.4696 8.45999 17.4444 8.48665C17.4191 8.51402 17.3885 8.53923 17.3524 8.56229L17.2983 8.59795L17.2875 8.60335L17.2767 8.60875L17.2745 8.612L17.2712 8.61416L17.268 8.61632L17.2658 8.61956L17.255 8.62496L17.2442 8.63037L17.242 8.63361L17.2388 8.63577L17.2355 8.63793L17.2334 8.64117L17.2312 8.64441L17.228 8.64657L17.2247 8.64873L17.2225 8.65198H17.2767L17.5796 8.58714C17.7816 8.54392 17.9746 8.4917 18.1585 8.43046L18.4507 8.33321L18.4831 8.32241L18.4994 8.317L18.5102 8.3116L18.521 8.3062L18.5318 8.30079L18.5427 8.29539L18.5643 8.29215L18.5859 8.28999V8.3116L18.5805 8.31376L18.5751 8.317L18.573 8.32024L18.5697 8.32241L18.5665 8.32457L18.5643 8.32781L18.5621 8.33105L18.5589 8.33321L18.5556 8.33537L18.5535 8.33861L18.5513 8.34186L18.5481 8.34402L18.5427 8.35482L18.5372 8.36563L18.534 8.36779C18.5326 8.36995 18.4868 8.43117 18.3966 8.55148C18.3064 8.67251 18.2577 8.73373 18.2505 8.73518C18.2433 8.73734 18.2332 8.74815 18.2202 8.7676C18.2079 8.78776 18.1315 8.86809 17.9908 9.00856C17.8501 9.14903 17.7124 9.27401 17.5775 9.38352C17.4419 9.49373 17.3733 9.62916 17.3719 9.78981C17.3697 9.94973 17.3614 10.1306 17.347 10.3322C17.3326 10.534 17.3055 10.7519 17.2658 10.986C17.2262 11.2201 17.1648 11.4848 17.0819 11.7802C16.9989 12.0755 16.8979 12.3637 16.7789 12.6446C16.6599 12.9256 16.5354 13.1777 16.4056 13.401C16.2757 13.6244 16.1567 13.8135 16.0485 13.9683C15.9403 14.1232 15.8303 14.2691 15.7185 14.406C15.6067 14.5428 15.4653 14.697 15.2943 14.8684C15.1226 15.0392 15.0289 15.1328 15.013 15.1494C14.9964 15.1652 14.9257 15.2243 14.8009 15.3266C14.6768 15.4296 14.5434 15.5326 14.4005 15.6356C14.2584 15.7379 14.1279 15.8233 14.0088 15.8917C13.8898 15.9602 13.7463 16.0383 13.5782 16.1262C13.4108 16.2148 13.2298 16.2969 13.035 16.3726C12.8402 16.4482 12.6346 16.5185 12.4182 16.5833C12.2018 16.6481 11.9926 16.6986 11.7906 16.7346C11.5886 16.7706 11.3596 16.8012 11.1035 16.8264L10.7194 16.8642V16.8696H10.0161V16.8642L9.92408 16.8588C9.86277 16.8552 9.81227 16.8516 9.77259 16.848C9.73292 16.8444 9.58323 16.8246 9.32354 16.7886C9.06385 16.7526 8.86006 16.7166 8.71218 16.6805C8.5643 16.6445 8.34428 16.5761 8.05212 16.4752C7.75997 16.3744 7.51001 16.2724 7.30226 16.1694C7.09523 16.0671 6.96538 16.0023 6.91272 15.9749C6.86078 15.9483 6.80235 15.9151 6.73743 15.8755L6.64004 15.8161L6.63789 15.8128L6.63463 15.8107L6.63138 15.8085L6.62922 15.8053L6.6184 15.7999L6.60758 15.7945L6.60543 15.7912L6.60217 15.7891L6.59892 15.7869L6.59676 15.7837L6.5946 15.7804L6.59135 15.7783H6.58594V15.7567L6.59676 15.7588L6.60758 15.7621L6.65627 15.7675C6.68873 15.7711 6.7771 15.7765 6.92137 15.7837C7.06566 15.7909 7.21894 15.7909 7.38125 15.7837C7.54356 15.7765 7.70948 15.7603 7.87899 15.7351C8.04852 15.7098 8.2487 15.6666 8.47954 15.6054C8.71038 15.5441 8.92246 15.4714 9.11579 15.3871C9.3084 15.3021 9.44545 15.2387 9.52698 15.1969C9.60776 15.1559 9.73112 15.0795 9.89703 14.9679L10.1459 14.8004L10.1481 14.7971L10.1513 14.795L10.1546 14.7928L10.1567 14.7896L10.1589 14.7863L10.1621 14.7842L10.1654 14.782L10.1675 14.7788L10.1784 14.7755L10.1892 14.7734L10.1913 14.7625L10.1946 14.7517L10.1979 14.7496L10.2 14.7463L10.1134 14.7409C10.0557 14.7373 9.99982 14.7337 9.94572 14.7301C9.89162 14.7265 9.80686 14.7103 9.69144 14.6815C9.57603 14.6527 9.45159 14.6095 9.31813 14.5518C9.18468 14.4942 9.05483 14.4258 8.92859 14.3465C8.80236 14.2673 8.7111 14.2014 8.65483 14.1488C8.59929 14.0969 8.52715 14.0234 8.43842 13.9284C8.35041 13.8326 8.27394 13.7342 8.20902 13.6334C8.1441 13.5325 8.08206 13.4162 8.02292 13.2843L7.9331 13.0877L7.92769 13.0715L7.92228 13.0553L7.91903 13.0445L7.91687 13.0336L7.9331 13.0358L7.94933 13.0391L8.06835 13.0553C8.14771 13.0661 8.27215 13.0697 8.44166 13.0661C8.61119 13.0625 8.72841 13.0553 8.79333 13.0445C8.85825 13.0336 8.89793 13.0264 8.91236 13.0228L8.934 13.0174L8.96105 13.012L8.9881 13.0066L8.99027 13.0034L8.99351 13.0012L8.99677 12.9991L8.99892 12.9958L8.97728 12.9904L8.95564 12.985L8.934 12.9796L8.91236 12.9742L8.89072 12.9688C8.87629 12.9652 8.85105 12.958 8.81497 12.9472C8.77891 12.9364 8.68152 12.8968 8.52282 12.8283C8.36412 12.7599 8.23788 12.6933 8.1441 12.6284C8.05008 12.5634 7.96044 12.4923 7.87575 12.4156C7.79135 12.3378 7.69866 12.2376 7.59766 12.1152C7.49667 11.9927 7.4065 11.8504 7.32715 11.6884C7.2478 11.5263 7.18829 11.3714 7.14861 11.2237C7.10909 11.0769 7.08301 10.9268 7.07071 10.7753L7.05122 10.5484L7.06204 10.5505L7.07286 10.5538L7.08368 10.5592L7.0945 10.5646L7.10532 10.57L7.11614 10.5754L7.28386 10.651C7.39568 10.7014 7.53454 10.7447 7.70046 10.7807C7.86638 10.8167 7.96556 10.8365 7.99802 10.8401L8.04671 10.8455H8.1441L8.14194 10.8423L8.13869 10.8401L8.13544 10.8379L8.13328 10.8347L8.13112 10.8315L8.12787 10.8293L8.12462 10.8271L8.12246 10.8239L8.11164 10.8185L8.10082 10.8131L8.09866 10.8099L8.09541 10.8077L8.09216 10.8055L8.09 10.8023L8.07917 10.7969L8.06835 10.7915L8.0662 10.7882C8.06404 10.7868 8.03301 10.7637 7.97313 10.7191C7.91398 10.6737 7.85194 10.615 7.78702 10.543C7.7221 10.4709 7.65717 10.3953 7.59225 10.316C7.52721 10.2366 7.46927 10.1516 7.41912 10.0621C7.36863 9.97206 7.31524 9.85751 7.25898 9.71849C7.20343 9.58018 7.16123 9.44079 7.13238 9.30031C7.10353 9.15984 7.0873 9.02117 7.08368 8.8843C7.08008 8.74742 7.08368 8.63037 7.0945 8.53311C7.10532 8.43586 7.12697 8.326 7.15943 8.20354C7.19189 8.08108 7.23879 7.95142 7.30009 7.81454L7.39207 7.60924L7.39748 7.59303L7.40289 7.57682L7.40615 7.57466L7.4083 7.57142L7.41046 7.56817L7.41371 7.56601L7.41697 7.56817L7.41912 7.57142L7.42128 7.57466L7.42453 7.57682L7.42779 7.57898L7.42994 7.58222L7.43211 7.58546L7.43535 7.58762L7.44076 7.59843L7.44617 7.60924L7.44943 7.6114L7.45158 7.61464L7.59766 7.77672C7.69504 7.88478 7.81047 8.00544 7.94392 8.13871C8.07738 8.27198 8.15132 8.34113 8.16574 8.34618C8.18017 8.35194 8.1982 8.3685 8.21984 8.39588C8.24148 8.42254 8.31362 8.48629 8.43625 8.58714C8.55889 8.68799 8.71939 8.80506 8.91777 8.93832C9.11615 9.07159 9.33617 9.20306 9.57782 9.33273C9.81949 9.4624 10.0792 9.57945 10.3569 9.68391C10.6346 9.78837 10.8294 9.8568 10.9412 9.88922C11.053 9.92163 11.2442 9.96305 11.5147 10.0135C11.7852 10.0639 11.989 10.0963 12.1261 10.1107C12.2631 10.1251 12.3569 10.1334 12.4074 10.1356L12.4831 10.1377L12.481 10.1215L12.4777 10.1053L12.4561 9.97026C12.4417 9.88022 12.4344 9.75415 12.4344 9.59206C12.4344 9.42998 12.4471 9.28051 12.4723 9.14363C12.4976 9.00676 12.5354 8.86809 12.5859 8.72762C12.6364 8.58714 12.6859 8.4744 12.7342 8.3894C12.7832 8.30512 12.8474 8.20895 12.9268 8.10089C13.0061 7.99283 13.1089 7.88118 13.2352 7.76592C13.3614 7.65065 13.5057 7.548 13.668 7.45796C13.8303 7.36791 13.98 7.29947 14.117 7.25265C14.2541 7.20583 14.3695 7.17521 14.4633 7.1608C14.5571 7.1464 14.604 7.13811 14.604 7.13595Z" fill="#8D8BA7"/>
</g>
</svg>
