<svg width="25" height="24" viewBox="0 0 25 24" fill="none" xmlns="http://www.w3.org/2000/svg">
<g id="Social Media Icon Square/YouTube">
<rect width="24" height="24" transform="translate(0.585938 0.00195312)" fill="#353535"/>
<g id="Group 73">
<rect id="Social Media Icon" x="0.585938" y="0.00195312" width="24" height="24" rx="5" fill="#FAFAFA"/>
<path id="YouTube" d="M12.8788 16.6547L10.1706 16.6041C9.29381 16.5865 8.41479 16.6217 7.55515 16.439C6.24744 16.166 6.1548 14.8274 6.05786 13.7045C5.92428 12.126 5.97599 10.5188 6.22807 8.95339C6.37037 8.07504 6.93039 7.55093 7.79645 7.4939C10.72 7.28691 13.663 7.31144 16.5801 7.40801C16.8882 7.41686 17.1984 7.46524 17.5022 7.52032C19.0017 7.78893 19.0383 9.30586 19.1355 10.5828C19.2324 11.873 19.1915 13.1698 19.0062 14.4511C18.8576 15.512 18.5731 16.4017 17.3729 16.4876C15.8691 16.5999 14.3997 16.6904 12.8917 16.6616C12.8917 16.6547 12.8831 16.6547 12.8788 16.6547ZM11.2866 13.9688C12.4199 13.3038 13.5316 12.65 14.6584 11.9895C13.523 11.3245 12.4134 10.6707 11.2866 10.0102V13.9688Z" fill="#8D8BA7"/>
</g>
</g>
</svg>
